<?xml version="1.0" encoding="UTF-8"?>
<svg version="1.1" xmlns="http://www.w3.org/2000/svg" width="500" height="500">
<path d="M0 0 C1.59130989 0.00033989 1.59130989 0.00033989 3.21476746 0.00068665 C4.93050713 0.02391243 4.93050713 0.02391243 6.6809082 0.04760742 C8.43912651 0.05397469 8.43912651 0.05397469 10.23286438 0.06047058 C13.98270479 0.07728545 17.73201102 0.11494385 21.48168945 0.15307617 C24.02139524 0.16811933 26.56110944 0.18180837 29.10083008 0.1940918 C35.33213264 0.22719821 41.56312289 0.27742589 47.79418945 0.34057617 C48.28918945 2.32057617 48.28918945 2.32057617 48.79418945 4.34057617 C46.15418945 5.00057617 43.51418945 5.66057617 40.79418945 6.34057617 C39.02008714 13.43698542 39.78757211 16.80649918 43.4465332 22.94213867 C44.74367153 25.2506689 45.68818226 27.48601863 46.60668945 29.96557617 C48.27617798 34.31026921 50.32863944 38.37938681 52.54418945 42.46557617 C57.91892782 52.38166371 62.94886715 62.44214404 67.7902832 72.62963867 C68.3171875 73.73645996 68.8440918 74.84328125 69.38696289 75.98364258 C70.42741822 78.17382336 71.46343777 80.3661185 72.49438477 82.56079102 C75.98887327 89.92293196 79.72078414 96.9320642 84.79418945 103.34057617 C87.04198695 101.28823933 87.79641366 100.33390356 88.79418945 97.34057617 C90.79418945 97.34057617 90.79418945 97.34057617 93.04418945 99.46557617 C93.62168945 100.41432617 94.19918945 101.36307617 94.79418945 102.34057617 C94.04370117 105.16430664 94.04370117 105.16430664 92.79418945 108.34057617 C92.43728027 109.27144043 92.08037109 110.20230469 91.71264648 111.16137695 C90.45862537 114.2671499 89.19185493 117.36739637 87.91918945 120.46557617 C87.26756836 122.09172852 87.26756836 122.09172852 86.6027832 123.75073242 C86.17352539 124.79358398 85.74426758 125.83643555 85.30200195 126.91088867 C84.9167334 127.85722168 84.53146484 128.80355469 84.13452148 129.77856445 C82.67328868 132.57167502 81.21654401 134.33163987 78.79418945 136.34057617 C75.41918945 137.02807617 75.41918945 137.02807617 71.79418945 136.34057617 C69.34918727 134.3049697 67.59038859 131.95222767 65.79418945 129.34057617 C65.25793945 128.57745117 64.72168945 127.81432617 64.16918945 127.02807617 C62.93383154 124.61351298 61.95670593 122.24265969 60.98168945 119.71557617 C59.0896851 114.83581205 56.72554502 110.34293348 54.16137695 105.78588867 C51.89868427 101.73890119 49.96437723 97.56798743 48.03637695 93.35229492 C40.32636414 76.55952881 40.32636414 76.55952881 31.81762695 60.16088867 C29.12035995 55.16889096 26.72634285 50.02779367 24.29418945 44.90307617 C15.51757034 22.210605 15.51757034 22.210605 -0.20581055 5.34057617 C-2.86707508 4.50321626 -5.46638095 3.90735471 -8.20581055 3.34057617 C-5.69146858 0.17534883 -3.96350299 -0.02824349 0 0 Z " fill="#124676" transform="translate(175.205810546875,159.659423828125)"/>
<path d="M0 0 C2.6875 0.3125 2.6875 0.3125 5 1 C5 5.21717276 4.9952129 5.64190393 2.3125 8.5 C-8.19108937 17.92846097 -22.67934996 16.44398618 -35.8125 16.125 C-38.56733182 16.06937615 -41.32193054 16.02001274 -44.07707214 15.9826355 C-45.7769084 15.95851231 -47.47664158 15.9237089 -49.17597961 15.87600708 C-54.47208841 15.78712354 -58.90980623 16.5163748 -64 18 C-63.67 18.66 -63.34 19.32 -63 20 C-62.23816406 19.96519531 -61.47632813 19.93039063 -60.69140625 19.89453125 C-52.15271602 19.67067046 -45.16281952 20.27313973 -38.25 25.625 C-32.68983389 30.91299015 -29.73020721 36.32527262 -29.4375 44.0625 C-29.70438326 49.44806737 -30.5649681 53.75339463 -34 58 C-36.52406288 60.24468187 -39.15778275 62.17877341 -42 64 C-41.01 64.66 -40.02 65.32 -39 66 C-39.49898234 69.193487 -40.36615877 71.92045939 -41.625 74.875 C-43.1990177 78.95071732 -42.81959278 81.67851081 -42 86 C-41.90205063 89.33517619 -41.9395939 92.66424087 -42 96 C-42.99 96 -43.98 96 -45 96 C-45.24234375 95.26394531 -45.4846875 94.52789062 -45.734375 93.76953125 C-48.65716306 85.25972141 -52.16122225 80.62786542 -58.9140625 74.81640625 C-64.72511789 69.75621757 -69.20428239 64.7343377 -73 58 C-73.33 58.99 -73.66 59.98 -74 61 C-71.52220919 65.89251059 -68.06366502 70.32959289 -64 74 C-59.17658039 78.55545185 -54.85305963 83.59806776 -51 89 C-51 89.66 -51 90.32 -51 91 C-50.01 91 -49.02 91 -48 91 C-44.91697099 98.59746436 -44.10015897 105.23084256 -45.625 113.3125 C-47.74181738 117.4499158 -50.65488732 120.09297245 -54.94921875 121.75390625 C-56.61464767 122.23698198 -58.30642537 122.62741358 -60 123 C-59 120 -59 120 -57.0625 118.125 C-53.7326707 114.69426678 -53.09781909 111.97819089 -52.625 107.25 C-53.0628835 94.92012264 -63.21477546 85.60171456 -71.5625 77.625 C-77.31761613 72.00729535 -81.15716318 66.02112291 -85 59 C-85.38414062 58.35804688 -85.76828125 57.71609375 -86.1640625 57.0546875 C-89.81497738 48.08094346 -88.37461322 35.76235777 -85 27 C-79.72025288 17.51072478 -71.12679048 12.20681699 -61 9 C-56.02013508 7.63078247 -51.06392382 7.96389527 -45.94921875 8.078125 C-43.95118816 8.10538775 -41.95314005 8.13138994 -39.95507812 8.15625 C-36.82121385 8.19942496 -33.68826863 8.24998227 -30.55493164 8.32226562 C-27.51955213 8.38920319 -24.4851647 8.42373027 -21.44921875 8.453125 C-20.05820198 8.49654022 -20.05820198 8.49654022 -18.63908386 8.54083252 C-12.16171078 8.56724443 -8.02712199 7.11259624 -3 3 C-2.4875322 2.44370911 -1.97506439 1.88741821 -1.44706726 1.31427002 C-0.96953506 0.88056091 -0.49200287 0.44685181 0 0 Z M-69 20 C-70.77409808 21.92022703 -70.77409808 21.92022703 -72 24 C-69.08482708 22.92598892 -67.22189824 22.22189824 -65 20 C-66.32 20 -67.64 20 -69 20 Z M-60 27 C-60 27.33 -60 27.66 -60 28 C-57.36 28 -54.72 28 -52 28 C-52 27.67 -52 27.34 -52 27 C-54.64 27 -57.28 27 -60 27 Z M-68.0625 30.25 C-68.75472656 30.66765625 -69.44695312 31.0853125 -70.16015625 31.515625 C-72.20697489 33.16698611 -73.00644469 34.59075707 -74 37 C-74.66 37 -75.32 37 -76 37 C-78.03656171 41.67211215 -78.0176197 45.04416504 -77.2890625 49.94921875 C-77 52 -77 52 -77 55 C-76.34 55.66 -75.68 56.32 -75 57 C-73.40317396 53.80634791 -73.60517983 50.35312371 -73.37890625 46.82421875 C-72.99003156 43.92569917 -72.11229058 41.68841083 -71 39 C-71 38.01 -71 37.02 -71 36 C-70.278125 35.731875 -69.55625 35.46375 -68.8125 35.1875 C-65.98517028 33.99373856 -63.49921628 32.78515449 -61 31 C-61 30.01 -61 29.02 -61 28 C-64.31182831 28 -65.31302564 28.54378413 -68.0625 30.25 Z M-52 28 C-49.40980145 30.99563793 -49.40980145 30.99563793 -45.875 32.5 C-44 33 -44 33 -42.875 34.5625 C-40.58739423 40.93511607 -39.62575545 45.40362614 -41 52 C-45.11418186 53.99475484 -48.44755354 54.34358086 -53 54 C-55.35953094 51.64046906 -55.49141413 50.22104383 -56 47 C-55.34 47 -54.68 47 -54 47 C-53.34 48.32 -52.68 49.64 -52 51 C-49.58354218 51.16687448 -49.58354218 51.16687448 -47 51 C-44.59331253 49.00885386 -44.59331253 49.00885386 -44.5625 45.125 C-44.67639505 41.99288613 -44.90165459 41.13564884 -46.8125 38.5 C-51.55753309 36.26704325 -55.86547787 35.85899508 -61 37 C-63.68810031 38.92886587 -65.50267205 41.04956898 -67 44 C-67 44.99 -67 45.98 -67 47 C-66.01 47 -65.02 47 -64 47 C-62.61876037 45.03277992 -61.28511874 43.03131672 -60 41 C-56.87139505 39.43569752 -54.44397075 39.64372716 -51 40 C-48.5625 42.5 -48.5625 42.5 -47 45 C-47.66 45.99 -48.32 46.98 -49 48 C-49.2475 47.360625 -49.495 46.72125 -49.75 46.0625 C-50.82410942 43.86828783 -50.82410942 43.86828783 -52.9375 43.0625 C-55.09601742 42.77177406 -55.09601742 42.77177406 -56.6875 44.375 C-57.120625 44.91125 -57.55375 45.4475 -58 46 C-58.33 46.33 -58.66 46.66 -59 47 C-58.75702457 51.63732985 -58.75702457 51.63732985 -56.72265625 55.671875 C-53.5571849 58.11237445 -49.89125332 58.10642744 -46 58 C-42.38756663 56.79585554 -40.60632455 55.73177101 -38.1875 52.8125 C-35.99248339 47.61377645 -35.52080527 43.7370809 -37 38.375 C-39.4113447 34.30585582 -41.98356063 31.50815623 -46 29 C-49.26139352 28.04832621 -49.26139352 28.04832621 -52 28 Z M-68 48 C-67.67 49.98 -67.34 51.96 -67 54 C-66.3185177 52.10820797 -66.3185177 52.10820797 -66 50 C-66.66 49.34 -67.32 48.68 -68 48 Z M-65 52 C-65.87754191 54.20438833 -65.87754191 54.20438833 -66 57 C-64.10393136 60.38583686 -62.02453548 63.52538006 -59 66 C-58.34 66 -57.68 66 -57 66 C-56.7525 66.598125 -56.505 67.19625 -56.25 67.8125 C-54.81927475 70.31626919 -53.4308418 71.48072388 -51 73 C-50.34 73 -49.68 73 -49 73 C-46.68407978 69.77885843 -46.68407978 69.77885843 -46 66 C-45.01 65.34 -44.02 64.68 -43 64 C-44.21236328 63.94392578 -44.21236328 63.94392578 -45.44921875 63.88671875 C-47.05216797 63.78810547 -47.05216797 63.78810547 -48.6875 63.6875 C-49.74324219 63.62949219 -50.79898438 63.57148438 -51.88671875 63.51171875 C-56.11738613 62.81633929 -58.87663123 61.28979377 -61.6875 58.0625 C-62.94204749 56.09106823 -64.01640348 54.11851558 -65 52 Z " fill="#207A7C" transform="translate(325,161)"/>
<path d="M0 0 C0.66 0.33 1.32 0.66 2 1 C1.67 1.99 1.34 2.98 1 4 C2.32 4.33 3.64 4.66 5 5 C3.73046875 6.46484375 2.4609375 7.9296875 1.19140625 9.39453125 C-0.20871231 11.10712971 -0.20871231 11.10712971 -1 14 C-0.01 14 0.98 14 2 14 C2.37125 12.8553125 2.37125 12.8553125 2.75 11.6875 C4.17560018 8.62245962 5.00320024 7.53889718 8 6 C11.4375 5.4375 11.4375 5.4375 15 6 C17.12012918 7.82861142 18.39225243 9.66145808 20 12 C18.68 13.32 17.36 14.64 16 16 C15.67 14.68 15.34 13.36 15 12 C13.10820797 11.3185177 13.10820797 11.3185177 11 11 C8.36966546 13.63033454 8.22037628 15.32706204 8 19 C8.73070004 21.42182765 8.73070004 21.42182765 11 23 C13.30529336 23.66587998 15.57262683 24.12662961 17.94140625 24.5078125 C20 25 20 25 22 27 C24.06874034 27.6425235 24.06874034 27.6425235 26 28 C26 27.34 26 26.68 26 26 C26.99 26.33 27.98 26.66 29 27 C27.35 28.32 25.7 29.64 24 31 C24.99 31.66 25.98 32.32 27 33 C26.50101766 36.193487 25.63384123 38.92045939 24.375 41.875 C22.8009823 45.95071732 23.18040722 48.67851081 24 53 C24.09794937 56.33517619 24.0604061 59.66424087 24 63 C23.01 63 22.02 63 21 63 C20.63648438 61.89591797 20.63648438 61.89591797 20.265625 60.76953125 C17.34283694 52.25972141 13.83877775 47.62786542 7.0859375 41.81640625 C0.41278376 36.00551395 -7.41581401 28.95406016 -8.203125 19.58203125 C-8.30924984 13.31182216 -7.90581019 8.61121968 -5 3 C-2.4375 0.9375 -2.4375 0.9375 0 0 Z M-2 15 C-1.67 16.98 -1.34 18.96 -1 21 C-0.3185177 19.10820797 -0.3185177 19.10820797 0 17 C-0.66 16.34 -1.32 15.68 -2 15 Z M1 19 C0.12245809 21.20438833 0.12245809 21.20438833 0 24 C1.89606864 27.38583686 3.97546452 30.52538006 7 33 C7.66 33 8.32 33 9 33 C9.2475 33.598125 9.495 34.19625 9.75 34.8125 C11.18072525 37.31626919 12.5691582 38.48072388 15 40 C15.66 40 16.32 40 17 40 C19.31592022 36.77885843 19.31592022 36.77885843 20 33 C20.99 32.34 21.98 31.68 23 31 C21.78763672 30.94392578 21.78763672 30.94392578 20.55078125 30.88671875 C18.94783203 30.78810547 18.94783203 30.78810547 17.3125 30.6875 C16.25675781 30.62949219 15.20101563 30.57148438 14.11328125 30.51171875 C9.88261387 29.81633929 7.12336877 28.28979377 4.3125 25.0625 C3.05795251 23.09106823 1.98359652 21.11851558 1 19 Z " fill="#228082" transform="translate(259,194)"/>
<path d="M0 0 C5.83972014 3.38655902 10.52559532 9.07189178 12.6875 15.4375 C13.58082458 23.23478989 12.83778107 28.77189707 8.6875 35.4375 C7.6875 36.4375 7.6875 36.4375 5.125 36.5 C4.320625 36.479375 3.51625 36.45875 2.6875 36.4375 C2.6875 37.0975 2.6875 37.7575 2.6875 38.4375 C1.0375 38.1075 -0.6125 37.7775 -2.3125 37.4375 C-2.6425 36.4475 -2.9725 35.4575 -3.3125 34.4375 C-2.384375 34.293125 -1.45625 34.14875 -0.5 34 C3.0473433 32.26110623 3.32783735 31.83423598 4.625 28.3125 C5.82159657 23.81445024 6.31789855 19.86930159 4.6875 15.4375 C1.90979513 10.98616223 -1.11413713 7.81353723 -6.3125 6.4375 C-5.920625 6.829375 -5.52875 7.22125 -5.125 7.625 C-4.526875 8.223125 -3.92875 8.82125 -3.3125 9.4375 C-2.466875 10.159375 -1.62125 10.88125 -0.75 11.625 C2.25886521 15.09676755 3.34172919 17.88196951 3.6875 22.4375 C3.08360541 26.53056336 2.61536667 28.61567524 -0.5 31.375 C-4.00871263 32.70051366 -6.59038722 32.85106809 -10.3125 32.4375 C-12.25 31.25 -12.25 31.25 -13.3125 29.4375 C-13.5 26.75 -13.5 26.75 -13.3125 24.4375 C-12.6525 24.4375 -11.9925 24.4375 -11.3125 24.4375 C-10.6525 25.4275 -9.9925 26.4175 -9.3125 27.4375 C-6.77042029 27.77093551 -6.77042029 27.77093551 -4.3125 27.4375 C-2.44327346 25.56827346 -3.02019771 22.93998831 -2.88671875 20.4453125 C-3.16391461 18.31711297 -3.16391461 18.31711297 -4.84765625 16.72265625 C-8.1859137 14.98210681 -11.37546368 14.8719719 -15.0625 14.75 C-15.75988281 14.71583984 -16.45726562 14.68167969 -17.17578125 14.64648438 C-18.88747108 14.56441705 -20.5999576 14.49927081 -22.3125 14.4375 C-21.9375 12 -21.9375 12 -21.3125 9.4375 C-20.6525 9.1075 -19.9925 8.7775 -19.3125 8.4375 C-18.9825 7.4475 -18.6525 6.4575 -18.3125 5.4375 C-19.9521875 6.18 -19.9521875 6.18 -21.625 6.9375 C-25.3125 8.4375 -25.3125 8.4375 -28.3125 8.4375 C-29 6.625 -29 6.625 -29.3125 4.4375 C-27.875 2.6875 -27.875 2.6875 -26.3125 1.4375 C-23.8375 2.4275 -23.8375 2.4275 -21.3125 3.4375 C-20.9825 2.4475 -20.6525 1.4575 -20.3125 0.4375 C-14.11528413 -2.79677378 -6.36737371 -2.85307322 0 0 Z M-17.3125 4.4375 C-17.3125 4.7675 -17.3125 5.0975 -17.3125 5.4375 C-14.6725 5.4375 -12.0325 5.4375 -9.3125 5.4375 C-9.3125 5.1075 -9.3125 4.7775 -9.3125 4.4375 C-11.9525 4.4375 -14.5925 4.4375 -17.3125 4.4375 Z " fill="#248A8D" transform="translate(282.3125,183.5625)"/>
<path d="M0 0 C2.6875 0.3125 2.6875 0.3125 5 1 C5 5.21717276 4.9952129 5.64190393 2.3125 8.5 C-8.16524897 17.90752748 -22.52943001 16.41950294 -35.625 16.0625 C-51.57873584 15.40027997 -51.57873584 15.40027997 -67 19 C-67.33 18.67 -67.66 18.34 -68 18 C-68.350625 18.474375 -68.70125 18.94875 -69.0625 19.4375 C-71.84163543 21.67873825 -74.5144717 21.67117658 -78 22 C-76.0973623 17.32988927 -73.17495472 14.07316845 -68.625 11.828125 C-60.80485687 8.6162805 -54.33843429 7.8907637 -45.94921875 8.078125 C-43.95118816 8.10538775 -41.95314005 8.13138994 -39.95507812 8.15625 C-36.82121385 8.19942496 -33.68826863 8.24998227 -30.55493164 8.32226562 C-27.51955213 8.38920319 -24.4851647 8.42373027 -21.44921875 8.453125 C-20.05820198 8.49654022 -20.05820198 8.49654022 -18.63908386 8.54083252 C-12.16171078 8.56724443 -8.02712199 7.11259624 -3 3 C-2.4875322 2.44370911 -1.97506439 1.88741821 -1.44706726 1.31427002 C-0.96953506 0.88056091 -0.49200287 0.44685181 0 0 Z " fill="#329FA2" transform="translate(325,161)"/>
<path d="M0 0 C6.00620651 6.73631877 8.45398533 11.88354412 8.33203125 20.94140625 C7.8415763 25.45936187 6.29760258 29.70239742 3 33 C1.33382885 33.04063832 -0.33388095 33.042721 -2 33 C-2 33.66 -2 34.32 -2 35 C-3.65 34.67 -5.3 34.34 -7 34 C-7.495 32.515 -7.495 32.515 -8 31 C-7.071875 30.855625 -6.14375 30.71125 -5.1875 30.5625 C-1.6401567 28.82360623 -1.35966265 28.39673598 -0.0625 24.875 C1.1328447 20.38165606 1.63729256 16.42608759 0 12 C-2.67233715 7.83574457 -5.46453351 5.02669435 -10 3 C-10 2.34 -10 1.68 -10 1 C-10.99 0.67 -11.98 0.34 -13 0 C-13.33 -0.99 -13.66 -1.98 -14 -3 C-8.2148935 -4.41676077 -4.53349143 -3.83683105 0 0 Z " fill="#2FA4A6" transform="translate(287,187)"/>
<path d="M0 0 C2.11441211 1.83355035 3.39277174 3.66221343 5 6 C3.68 7.32 2.36 8.64 1 10 C0.67 8.68 0.34 7.36 0 6 C-1.89179203 5.3185177 -1.89179203 5.3185177 -4 5 C-6.63033454 7.63033454 -6.77962372 9.32706204 -7 13 C-6.26929996 15.42182765 -6.26929996 15.42182765 -4 17 C-1.69470664 17.66587998 0.57262683 18.12662961 2.94140625 18.5078125 C5 19 5 19 7 21 C9.06874034 21.6425235 9.06874034 21.6425235 11 22 C11 21.34 11 20.68 11 20 C11.99 20.33 12.98 20.66 14 21 C9.20778684 25.25974503 5.18804062 25.60679541 -1.1484375 25.39453125 C-5.19709081 24.83437511 -7.00902562 23.75484482 -10 21 C-12.14915785 17.77626323 -12.38286803 16.73296326 -12 13 C-11.34 12.34 -10.68 11.68 -10 11 C-10 10.34 -10 9.68 -10 9 C-10.99 9 -11.98 9 -13 9 C-12.71897086 5.62765029 -12.19628348 4.21360261 -9.875 1.6875 C-6.17949567 -0.48160037 -4.21875652 -0.75334938 0 0 Z " fill="#2D8A89" transform="translate(274,200)"/>
<path d="M0 0 C2.75 0.25 2.75 0.25 5 1 C5 5 5 5 3.75 6.81640625 C2.88375 7.68072266 2.88375 7.68072266 2 8.5625 C1.443125 9.14128906 0.88625 9.72007812 0.3125 10.31640625 C-6.2669584 15.1065187 -12.77290957 15.45191922 -20.625 15.3125 C-21.54023438 15.31572266 -22.45546875 15.31894531 -23.3984375 15.32226562 C-28.32063221 15.28314414 -32.38727551 14.92324559 -37 13 C-37 12.01 -37 11.02 -37 10 C-36.3201001 9.99589111 -35.6402002 9.99178223 -34.93969727 9.98754883 C-31.81312423 9.95434111 -28.68843033 9.88366829 -25.5625 9.8125 C-24.49322266 9.80669922 -23.42394531 9.80089844 -22.32226562 9.79492188 C-13.96575522 9.56492618 -7.61505739 7.81589391 -1.75 1.625 C-1.1725 1.08875 -0.595 0.5525 0 0 Z " fill="#47ACB2" transform="translate(325,161)"/>
<path d="M0 0 C0.99966797 0.19916016 0.99966797 0.19916016 2.01953125 0.40234375 C8.66777016 1.67620211 15.25031187 2.50389139 22 3 C20.88634898 5.9835343 19.75720722 8.96096317 18.625 11.9375 C18.30789063 12.78763672 17.99078125 13.63777344 17.6640625 14.51367188 C17.3546875 15.32255859 17.0453125 16.13144531 16.7265625 16.96484375 C16.30238037 18.08814087 16.30238037 18.08814087 15.86962891 19.23413086 C15 21 15 21 13 22 C12.63648438 21.12988281 12.63648438 21.12988281 12.265625 20.2421875 C9.04254115 12.72992282 6.15101599 7.22560036 -1 3 C-0.67 2.01 -0.34 1.02 0 0 Z " fill="#299DA9" transform="translate(285,178)"/>
<path d="M0 0 C2 0 2 0 4.25 2.125 C4.8275 3.07375 5.405 4.0225 6 5 C4.64787924 10.47525444 2.0837752 15.69257339 -0.125 20.875 C-0.49753906 21.75414062 -0.87007813 22.63328125 -1.25390625 23.5390625 C-2.16723528 25.69358227 -3.08264932 27.84719024 -4 30 C-4.33 29.01 -4.66 28.02 -5 27 C-5.99 27 -6.98 27 -8 27 C-7.67 23.7 -7.34 20.4 -7 17 C-6.34 17.33 -5.68 17.66 -5 18 C-2.90178785 17.60061233 -2.90178785 17.60061233 -1 17 C-1.33 15.68 -1.66 14.36 -2 13 C-3.65 13 -5.3 13 -7 13 C-7 11.02 -7 9.04 -7 7 C-8.32 6.34 -9.64 5.68 -11 5 C-10.67 3.68 -10.34 2.36 -10 1 C-6.83884224 2.36983503 -6.0072908 2.9890638 -4 6 C-1.7522025 3.94766315 -0.9977758 2.99332739 0 0 Z " fill="#0F5E7F" transform="translate(264,257)"/>
<path d="M0 0 C1.59130989 0.00033989 1.59130989 0.00033989 3.21476746 0.00068665 C4.93050713 0.02391243 4.93050713 0.02391243 6.6809082 0.04760742 C8.43912651 0.05397469 8.43912651 0.05397469 10.23286438 0.06047058 C13.98270479 0.07728545 17.73201102 0.11494385 21.48168945 0.15307617 C24.02139524 0.16811933 26.56110944 0.18180837 29.10083008 0.1940918 C35.33213264 0.22719821 41.56312289 0.27742589 47.79418945 0.34057617 C48.28918945 2.32057617 48.28918945 2.32057617 48.79418945 4.34057617 C47.53606445 4.62932617 46.27793945 4.91807617 44.98168945 5.21557617 C41.94024955 5.91361156 40.48749067 6.54504202 37.79418945 8.34057617 C38.45418945 6.03057617 39.11418945 3.72057617 39.79418945 1.34057617 C23.95418945 1.83557617 23.95418945 1.83557617 7.79418945 2.34057617 C7.46418945 3.99057617 7.13418945 5.64057617 6.79418945 7.34057617 C7.45418945 7.34057617 8.11418945 7.34057617 8.79418945 7.34057617 C8.79418945 8.00057617 8.79418945 8.66057617 8.79418945 9.34057617 C9.78418945 9.67057617 10.77418945 10.00057617 11.79418945 10.34057617 C12.12418945 12.98057617 12.45418945 15.62057617 12.79418945 18.34057617 C10.73352751 16.48598042 9.45597062 14.7924284 7.98168945 12.40307617 C3.69960027 6.40815131 -1.29822347 4.76973212 -8.20581055 3.34057617 C-5.69146858 0.17534883 -3.96350299 -0.02824349 0 0 Z " fill="#16326D" transform="translate(175.205810546875,159.659423828125)"/>
<path d="M0 0 C4.53548387 -0.36774194 4.53548387 -0.36774194 6.5 1.1875 C6.995 1.785625 7.49 2.38375 8 3 C8.845625 3.721875 9.69125 4.44375 10.5625 5.1875 C13.57136521 8.65926755 14.65422919 11.44446951 15 16 C14.39610541 20.09306336 13.92786667 22.17817524 10.8125 24.9375 C7.30378737 26.26301366 4.72211278 26.41356809 1 26 C-0.9375 24.8125 -0.9375 24.8125 -2 23 C-2.1875 20.3125 -2.1875 20.3125 -2 18 C-1.34 18 -0.68 18 0 18 C0.66 18.99 1.32 19.98 2 21 C4.54207971 21.33343551 4.54207971 21.33343551 7 21 C8.89488952 19.10511048 8.18019112 16.42860854 8.23046875 13.91015625 C8.1702792 11.7587364 8.1702792 11.7587364 6 10 C6 9.01 6 8.02 6 7 C5.01 6.67 4.02 6.34 3 6 C3.66 5.67 4.32 5.34 5 5 C5 4.34 5 3.68 5 3 C2.03 2.505 2.03 2.505 -1 2 C-0.67 1.34 -0.34 0.68 0 0 Z " fill="#349798" transform="translate(271,190)"/>
<path d="M0 0 C0 1.32 0 2.64 0 4 C0.52819336 3.83773926 1.05638672 3.67547852 1.60058594 3.50830078 C4.57657192 2.87785686 7.34753662 2.87021416 10.390625 2.8671875 C11.65116699 2.86525391 12.91170898 2.86332031 14.21044922 2.86132812 C15.55696761 2.86543149 16.90348466 2.86999632 18.25 2.875 C18.92452209 2.87588623 19.59904419 2.87677246 20.29400635 2.87768555 C30.22770266 2.8930926 40.10228976 3.11458183 50 4 C50 4.33 50 4.66 50 5 C48.81559326 4.98428955 47.63118652 4.9685791 46.41088867 4.95239258 C41.96971578 4.8976343 37.52857204 4.86348473 33.0871582 4.83520508 C31.17369551 4.82022217 29.26026653 4.79982874 27.34692383 4.77368164 C12.41155489 4.44619781 12.41155489 4.44619781 -2 8 C-2.33 7.67 -2.66 7.34 -3 7 C-3.350625 7.474375 -3.70125 7.94875 -4.0625 8.4375 C-6.84163543 10.67873825 -9.5144717 10.67117658 -13 11 C-11.15309213 6.46668069 -7.99273431 3.19564058 -3.8125 0.6875 C-2 0 -2 0 0 0 Z " fill="#309094" transform="translate(260,172)"/>
<path d="M0 0 C0.66 0.33 1.32 0.66 2 1 C1.01 2.32 0.02 3.64 -1 5 C3.47883696 4.55296014 3.47883696 4.55296014 7 2 C7.66 1.67 8.32 1.34 9 1 C9 1.66 9 2.32 9 3 C12.46222615 4.06723961 15.64039266 4.10173486 19.25 4.0625 C20.86648438 4.04896484 20.86648438 4.04896484 22.515625 4.03515625 C23.74539063 4.01775391 23.74539063 4.01775391 25 4 C25 4.33 25 4.66 25 5 C21.04 5.66 17.08 6.32 13 7 C13.33 7.99 13.66 8.98 14 10 C11 11 11 11 8.8125 10.0625 C8.214375 9.711875 7.61625 9.36125 7 9 C5.87483915 10.83284443 5.87483915 10.83284443 5 13 C5.33 13.99 5.66 14.98 6 16 C5.01 16.66 4.02 17.32 3 18 C2.87625 17.38125 2.7525 16.7625 2.625 16.125 C2.12802644 13.80879168 2.12802644 13.80879168 0 12 C0 11.34 0 10.68 0 10 C-1.32 9.67 -2.64 9.34 -4 9 C-4.8125 7.3125 -4.8125 7.3125 -5 5 C-2.5625 2.25 -2.5625 2.25 0 0 Z M7 4 C5.22590192 5.92022703 5.22590192 5.92022703 4 8 C6.91517292 6.92598892 8.77810176 6.22189824 11 4 C9.68 4 8.36 4 7 4 Z " fill="#298487" transform="translate(249,177)"/>
<path d="M0 0 C5.875 2.75 5.875 2.75 7 5 C7.42627965 10.51189497 7.55942841 15.99748083 5 21 C0.90957117 25.18555508 -2.32845494 26.75226009 -8 28 C-7 25 -7 25 -5.125 23.1875 C-2.69059284 20.68149263 -1.43809163 18.16380159 0 15 C0.66 15 1.32 15 2 15 C3.34483807 9.86516373 2.53864311 7.5695576 0 3 C0 2.01 0 1.02 0 0 Z " fill="#1EA1A0" transform="translate(273,256)"/>
<path d="M0 0 C2.09970981 3.9171057 2.99334562 7.68576696 4 12 C4.99 10.02 5.98 8.04 7 6 C7.66 6 8.32 6 9 6 C9 4.35 9 2.7 9 1 C12.35450793 4.35450793 12 9.43260973 12 14 C12.66 14.33 13.32 14.66 14 15 C13.67 16.32 13.34 17.64 13 19 C10.69 18.67 8.38 18.34 6 18 C5.67 18.99 5.34 19.98 5 21 C0.75428938 16.69484944 0.36305062 13.43766567 0.25 7.6875 C0.22035156 6.94693359 0.19070312 6.20636719 0.16015625 5.44335938 C0.08994155 3.62947954 0.04264952 1.81473722 0 0 Z " fill="#216D71" transform="translate(237,201)"/>
<path d="M0 0 C3.875 3.75 3.875 3.75 5 6 C5.99 6.33 6.98 6.66 8 7 C8.99 8.485 8.99 8.485 10 10 C10.66 10.33 11.32 10.66 12 11 C11.34 11.66 10.68 12.32 10 13 C10.24456242 18.25809202 12.32376082 21.62069952 15 26 C16.03434016 28.00453519 17.01202711 30.02580716 17.96484375 32.0703125 C18.28582031 32.74835938 18.60679687 33.42640625 18.9375 34.125 C19.25589844 34.80820313 19.57429688 35.49140625 19.90234375 36.1953125 C21.01935177 38.31813594 21.01935177 38.31813594 24 40 C23.34 40.66 22.68 41.32 22 42 C22.3185177 44.10820797 22.3185177 44.10820797 23 46 C19.68267062 42.92304462 18.00938829 39.29925506 16.09375 35.26171875 C15.7277771 34.50333206 15.3618042 33.74494537 14.98474121 32.96357727 C13.81725047 30.54100908 12.6584613 28.11439701 11.5 25.6875 C10.7206374 24.06547384 9.94069567 22.44372581 9.16015625 20.82226562 C8.05631926 18.52886744 6.953323 16.23510928 5.8548584 13.93913269 C5.35919373 12.9032476 5.35919373 12.9032476 4.85351562 11.84643555 C4.5413208 11.1930722 4.22912598 10.53970886 3.9074707 9.86654663 C3.05023096 8.1033184 2.15416386 6.35912051 1.25585938 4.61645508 C0 2 0 2 0 0 Z " fill="#153861" transform="translate(204,211)"/>
<path d="M0 0 C1.32 0.66 2.64 1.32 4 2 C4 2.66 4 3.32 4 4 C4.99 4 5.98 4 7 4 C7.33 5.98 7.66 7.96 8 10 C7.34 10 6.68 10 6 10 C5.67 10.66 5.34 11.32 5 12 C5.33 12.7425 5.66 13.485 6 14.25 C7.20907704 17.57496185 6.79044779 19.60107451 6 23 C5.01 23 4.02 23 3 23 C2.90203125 22.39414062 2.8040625 21.78828125 2.703125 21.1640625 C1.5537167 14.72341254 -0.37659667 8.98543478 -3 3 C-2.01 2.01 -1.02 1.02 0 0 Z " fill="#228281" transform="translate(270,248)"/>
<path d="M0 0 C3.58331625 -0.02907084 7.16660208 -0.04682263 10.75 -0.0625 C11.76578125 -0.07087891 12.7815625 -0.07925781 13.828125 -0.08789062 C14.8078125 -0.09111328 15.7875 -0.09433594 16.796875 -0.09765625 C17.69760742 -0.10289307 18.59833984 -0.10812988 19.52636719 -0.11352539 C21.83389804 -0.00762312 23.79134405 0.34867187 26 1 C26 1.99 26 2.98 26 4 C17.75 4 9.5 4 1 4 C0.67 2.68 0.34 1.36 0 0 Z " fill="#35B6C2" transform="translate(288,171)"/>
<path d="M0 0 C0.99966797 0.19916016 0.99966797 0.19916016 2.01953125 0.40234375 C8.66777016 1.67620211 15.25031187 2.50389139 22 3 C21.34 4.65 20.68 6.3 20 8 C19.67 7.01 19.34 6.02 19 5 C17.54054712 5.08708669 16.08234132 5.19526907 14.625 5.3125 C13.81289063 5.37050781 13.00078125 5.42851562 12.1640625 5.48828125 C9.62078662 5.82990528 9.62078662 5.82990528 8 9 C8.66 9 9.32 9 10 9 C9.67 9.99 9.34 10.98 9 12 C8.46375 11.2575 7.9275 10.515 7.375 9.75 C4.84735261 6.82325039 2.28172632 5.01378661 -1 3 C-0.67 2.01 -0.34 1.02 0 0 Z " fill="#2DA2AB" transform="translate(285,178)"/>
<path d="M0 0 C0.66 0 1.32 0 2 0 C2 0.99 2 1.98 2 3 C2.66 3 3.32 3 4 3 C3.34496718 7.05819183 2.05440879 10.53971282 0.4375 14.3125 C-0.01753906 15.38113281 -0.47257812 16.44976562 -0.94140625 17.55078125 C-1.46541016 18.76314453 -1.46541016 18.76314453 -2 20 C-2.33 19.01 -2.66 18.02 -3 17 C-3.99 17 -4.98 17 -6 17 C-5.67 13.7 -5.34 10.4 -5 7 C-4.34 7.33 -3.68 7.66 -3 8 C-0.90178785 7.60061233 -0.90178785 7.60061233 1 7 C0.67 6.67 0.34 6.34 0 6 C-0.04080783 4.00041636 -0.04254356 1.99954746 0 0 Z " fill="#14547E" transform="translate(262,267)"/>
<path d="M0 0 C2.97703018 2.77171776 4.94223867 5.51075252 7 9 C7.5053125 9.46019531 8.010625 9.92039063 8.53125 10.39453125 C10.30552971 12.33396997 10.52714939 13.55223999 10.9375 16.125 C11.76467227 20.4890468 13.28963938 24.10465998 15.29296875 28.0546875 C16 30 16 30 15 33 C13.24657289 29.52255052 11.4978988 26.04273106 9.75 22.5625 C9.25886719 21.58861328 8.76773438 20.61472656 8.26171875 19.61132812 C0 3.14296875 0 3.14296875 0 0 Z " fill="#17345F" transform="translate(188,178)"/>
<path d="M0 0 C12.54 0 25.08 0 38 0 C38.495 1.98 38.495 1.98 39 4 C37.741875 4.28875 36.48375 4.5775 35.1875 4.875 C32.1460601 5.57303539 30.69330122 6.20446585 28 8 C28.66 5.69 29.32 3.38 30 1 C20.1 1 10.2 1 0 1 C0 0.67 0 0.34 0 0 Z " fill="#234869" transform="translate(185,160)"/>
<path d="M0 0 C1.67542976 0.28604898 3.34385343 0.61781233 5 1 C5 5 5 5 3.375 7.0625 C-0.17554216 9.95899492 -3.35136509 12 -8 12 C-6.9545437 8.86363109 -6.23811043 8.23811043 -4 6 C-2.97695052 4.34738161 -1.97383946 2.68208635 -1 1 C-0.67 0.67 -0.34 0.34 0 0 Z " fill="#4ABFCB" transform="translate(325,161)"/>
<path d="M0 0 C0.66 0.33 1.32 0.66 2 1 C2.625 4.0625 2.625 4.0625 3 7 C3.886875 6.979375 4.77375 6.95875 5.6875 6.9375 C8.62169631 6.99286219 11.15493696 7.3305734 14 8 C14 9.32 14 10.64 14 12 C12.02 12 10.04 12 8 12 C7.67 11.01 7.34 10.02 7 9 C5.02 9.33 3.04 9.66 1 10 C-1.09749995 7.64031256 -1.96905704 6.45383006 -2.1875 3.25 C-2.125625 2.5075 -2.06375 1.765 -2 1 C-1.34 0.67 -0.68 0.34 0 0 Z " fill="#23908C" transform="translate(264,212)"/>
<path d="M0 0 C2.75685651 2.42621574 4.12814041 4.95336212 5.69921875 8.25390625 C6.18583984 9.27291016 6.67246094 10.29191406 7.17382812 11.34179688 C7.67333984 12.40462891 8.17285156 13.46746094 8.6875 14.5625 C9.45416992 16.16254883 9.45416992 16.16254883 10.23632812 17.79492188 C14 25.72928488 14 25.72928488 14 28 C13.34 28 12.68 28 12 28 C11.71125 27.195625 11.4225 26.39125 11.125 25.5625 C10.26737432 22.8673532 10.26737432 22.8673532 8 22 C7.1484375 19.93359375 7.1484375 19.93359375 6.375 17.4375 C6.11460937 16.61121094 5.85421875 15.78492188 5.5859375 14.93359375 C5.39257812 14.29550781 5.19921875 13.65742188 5 13 C4.34 13 3.68 13 3 13 C2.4465236 10.92446352 2 9.15634036 2 7 C1.2236068 3.9254644 1.2236068 3.9254644 -1 2 C-0.67 1.34 -0.34 0.68 0 0 Z " fill="#1E506C" transform="translate(234,217)"/>
<path d="M0 0 C0.95261719 -0.00515625 1.90523438 -0.0103125 2.88671875 -0.015625 C5.3125 0.25 5.3125 0.25 7.3125 2.25 C5.3325 2.58 3.3525 2.91 1.3125 3.25 C2.3025 4.57 3.2925 5.89 4.3125 7.25 C2.9925 7.25 1.6725 7.25 0.3125 7.25 C0.3125 6.59 0.3125 5.93 0.3125 5.25 C-2.9875 5.25 -6.2875 5.25 -9.6875 5.25 C-10.0175 4.26 -10.3475 3.27 -10.6875 2.25 C-6.98620703 0.55104585 -4.06583604 -0.02218737 0 0 Z " fill="#269594" transform="translate(272.6875,181.75)"/>
<path d="M0 0 C0.66 0 1.32 0 2 0 C2.3125 2.25 2.3125 2.25 2 5 C-1.0802463 8.16825333 -3.62179908 9.49963418 -8 10 C-8.33 8.68 -8.66 7.36 -9 6 C-8.43410156 5.65066406 -7.86820312 5.30132812 -7.28515625 4.94140625 C-6.55167969 4.48636719 -5.81820313 4.03132812 -5.0625 3.5625 C-4.33160156 3.11003906 -3.60070312 2.65757812 -2.84765625 2.19140625 C-1.06100191 1.13135967 -1.06100191 1.13135967 0 0 Z " fill="#44ABB6" transform="translate(320,155)"/>
<path d="M0 0 C4.25537303 2.06689547 6.30325519 4.50004585 8.7890625 8.37890625 C10.07902557 10.29436811 10.07902557 10.29436811 13 12 C13 12.66 13 13.32 13 14 C11.3603125 13.4740625 11.3603125 13.4740625 9.6875 12.9375 C6.09079627 11.66960546 6.09079627 11.66960546 3 13 C1.02 10.69 -0.96 8.38 -3 6 C-0.03 6.99 2.94 7.98 6 9 C5.01 7.88625 4.02 6.7725 3 5.625 C0 2.25 0 2.25 0 0 Z " fill="#267171" transform="translate(254,229)"/>
<path d="M0 0 C0.12375 0.61875 0.2475 1.2375 0.375 1.875 C0.87197356 4.19120832 0.87197356 4.19120832 3 6 C3 6.99 3 7.98 3 9 C1.35 9 -0.3 9 -2 9 C-2 9.66 -2 10.32 -2 11 C-3.65 10.67 -5.3 10.34 -7 10 C-7.33 9.01 -7.66 8.02 -8 7 C-7.05125 6.773125 -6.1025 6.54625 -5.125 6.3125 C-1.80676612 5.30916286 -1.80676612 5.30916286 -0.625 2.375 C-0.41875 1.59125 -0.2125 0.8075 0 0 Z " fill="#369394" transform="translate(287,211)"/>
<path d="M0 0 C0.33 0.66 0.66 1.32 1 2 C4.02934491 2.65772428 4.02934491 2.65772428 7 3 C7.33 3.99 7.66 4.98 8 6 C7.01 6.33 6.02 6.66 5 7 C4.26676204 9.01508358 4.26676204 9.01508358 4 11 C2.68 11.33 1.36 11.66 0 12 C-0.39063507 10.56666979 -0.76198474 9.12807321 -1.125 7.6875 C-1.33382812 6.88699219 -1.54265625 6.08648437 -1.7578125 5.26171875 C-2 3 -2 3 0 0 Z M0 3 C0.33 4.98 0.66 6.96 1 9 C1.6814823 7.10820797 1.6814823 7.10820797 2 5 C1.34 4.34 0.68 3.68 0 3 Z " fill="#1C7C85" transform="translate(257,206)"/>
<path d="M0 0 C0.66 0 1.32 0 2 0 C2.33 0.99 2.66 1.98 3 3 C4.63502936 4.58558381 4.63502936 4.58558381 6.5625 6.0625 C8.50390625 7.59765625 8.50390625 7.59765625 10 9 C10 9.66 10 10.32 10 11 C7.8125 11.3125 7.8125 11.3125 5 11 C2.1875 8.75 2.1875 8.75 0 6 C0 4 0 2 0 0 Z " fill="#1F7D80" transform="translate(250,227)"/>
<path d="M0 0 C0.66 0 1.32 0 2 0 C2 0.66 2 1.32 2 2 C5.46222615 3.06723961 8.64039266 3.10173486 12.25 3.0625 C13.86648438 3.04896484 13.86648438 3.04896484 15.515625 3.03515625 C16.74539063 3.01775391 16.74539063 3.01775391 18 3 C18 3.33 18 3.66 18 4 C14.04 4.66 10.08 5.32 6 6 C6.33 6.99 6.66 7.98 7 9 C6.01 9.33 5.02 9.66 4 10 C3.01 9.01 2.02 8.02 1 7 C1.33 6.01 1.66 5.02 2 4 C1.34 3.34 0.68 2.68 0 2 C0 1.34 0 0.68 0 0 Z " fill="#217F7F" transform="translate(256,178)"/>
<path d="M0 0 C2.18978273 6.56934818 2.12392274 13.15671103 2 20 C1.01 20 0.02 20 -1 20 C-1.33 17.69 -1.66 15.38 -2 13 C-1.34 13 -0.68 13 0 13 C-0.99 9.7 -1.98 6.4 -3 3 C-2.01 2.01 -1.02 1.02 0 0 Z " fill="#2E7D7B" transform="translate(281,237)"/>
<path d="M0 0 C0 0.99 0 1.98 0 3 C-0.66 3.66 -1.32 4.32 -2 5 C-2.165 5.66 -2.33 6.32 -2.5 7 C-3 9 -3 9 -5 11 C-5.33 9.68 -5.66 8.36 -6 7 C-6.99 7 -7.98 7 -9 7 C-8.75 4.625 -8.75 4.625 -8 2 C-5.10189884 -0.09862498 -3.71621139 0 0 0 Z " fill="#2A8684" transform="translate(270,202)"/>
<path d="M0 0 C2.97 0 5.94 0 9 0 C9.33 1.32 9.66 2.64 10 4 C7.69 4 5.38 4 3 4 C2.34 5.32 1.68 6.64 1 8 C0.34 7.67 -0.32 7.34 -1 7 C-0.67 6.01 -0.34 5.02 0 4 C-0.66 4 -1.32 4 -2 4 C-1.34 2.68 -0.68 1.36 0 0 Z " fill="#1FAAB4" transform="translate(295,183)"/>
<path d="M0 0 C-0.60990891 3.55780196 -1.5783681 6.6828589 -3 10 C-3.33 10 -3.66 10 -4 10 C-4.33 7.69 -4.66 5.38 -5 3 C-6.98 3.99 -6.98 3.99 -9 5 C-8.67 3.02 -8.34 1.04 -8 -1 C-4.59745511 -2.2151946 -3.06748874 -1.86240388 0 0 Z " fill="#267A85" transform="translate(286,227)"/>
<path d="M0 0 C0.66 0 1.32 0 2 0 C2.66 0.99 3.32 1.98 4 3 C5.65391846 3.39171753 7.32345271 3.72057545 9 4 C11.3125 5.0625 11.3125 5.0625 13 6 C9.30513897 8.46324069 7.36706908 8.38991688 3 8 C1.0625 6.8125 1.0625 6.8125 0 5 C-0.1875 2.3125 -0.1875 2.3125 0 0 Z " fill="#388E8B" transform="translate(269,208)"/>
<path d="M0 0 C-0.60698743 4.12751449 -2.03810791 7.3321148 -4 11 C-4.99 10.67 -5.98 10.34 -7 10 C-6.814375 9.443125 -6.62875 8.88625 -6.4375 8.3125 C-5.92448835 5.600867 -6.3359276 3.65628961 -7 1 C-2.25 0 -2.25 0 0 0 Z " fill="#135180" transform="translate(215,161)"/>
<path d="M0 0 C0.99 0 1.98 0 3 0 C3.9765625 6.0546875 3.9765625 6.0546875 4 8 C3.34 8.66 2.68 9.32 2 10 C0.68 9.34 -0.64 8.68 -2 8 C-1.34 5.36 -0.68 2.72 0 0 Z " fill="#2DAAAC" transform="translate(289,208)"/>
<path d="M0 0 C0.99966797 0.19916016 0.99966797 0.19916016 2.01953125 0.40234375 C8.66777016 1.67620211 15.25031187 2.50389139 22 3 C21.01 4.485 21.01 4.485 20 6 C20 5.34 20 4.68 20 4 C14.72 4 9.44 4 4 4 C3.67 4.66 3.34 5.32 3 6 C1.68 5.01 0.36 4.02 -1 3 C-0.67 2.01 -0.34 1.02 0 0 Z " fill="#3D9E9F" transform="translate(285,178)"/>
<path d="M0 0 C3.16115776 1.36983503 3.9927092 1.9890638 6 5 C6.99 5 7.98 5 9 5 C8.34 6.65 7.68 8.3 7 10 C6.34 10 5.68 10 5 10 C5 9.34 5 8.68 5 8 C4.34 8 3.68 8 3 8 C3 7.34 3 6.68 3 6 C1.68 5.34 0.36 4.68 -1 4 C-0.67 2.68 -0.34 1.36 0 0 Z " fill="#177095" transform="translate(254,258)"/>
<path d="M0 0 C-0.33 1.65 -0.66 3.3 -1 5 C-2.98 5.33 -4.96 5.66 -7 6 C-8 3 -8 3 -7 0 C-3.86650268 -1.04449911 -3.01031744 -0.93423645 0 0 Z " fill="#219B9C" transform="translate(271,191)"/>
<path d="M0 0 C7.26 0 14.52 0 22 0 C22 0.33 22 0.66 22 1 C20.85660156 1.04898438 19.71320313 1.09796875 18.53515625 1.1484375 C17.04424527 1.22345189 15.55336108 1.29900028 14.0625 1.375 C12.93038086 1.42140625 12.93038086 1.42140625 11.77539062 1.46875 C9.84492605 1.5726315 7.92057919 1.77895614 6 2 C5.67 2.66 5.34 3.32 5 4 C3.35 3.67 1.7 3.34 0 3 C0 2.01 0 1.02 0 0 Z " fill="#2EACB6" transform="translate(288,171)"/>
<path d="M0 0 C3.0831351 1.19899698 6.06279492 2.47700477 9 4 C9 4.66 9 5.32 9 6 C9.99 6.33 10.98 6.66 12 7 C12.33 9.64 12.66 12.28 13 15 C10.93933806 13.14540425 9.66178116 11.45185223 8.1875 9.0625 C5.81019005 5.73426607 3.4158483 4.17372164 0 2 C0 1.34 0 0.68 0 0 Z " fill="#1B346A" transform="translate(175,163)"/>
<path d="M0 0 C1.45823212 -0.0270043 2.91660675 -0.04639787 4.375 -0.0625 C5.18710937 -0.07410156 5.99921875 -0.08570313 6.8359375 -0.09765625 C9 0 9 0 11 1 C10.67 2.32 10.34 3.64 10 5 C6.7 4.34 3.4 3.68 0 3 C0 2.01 0 1.02 0 0 Z " fill="#3CA0AB" transform="translate(288,160)"/>
<path d="M0 0 C3.50778211 4.20933853 7 9.4255442 7 15 C4 14 4 14 2.375 12 C0.56208011 8.04453842 0.27209581 4.30661988 0 0 Z " fill="#194A65" transform="translate(225,198)"/>
<path d="M0 0 C0.33 0.66 0.66 1.32 1 2 C0.04882866 3.1725131 -0.91117009 4.33787015 -1.875 5.5 C-2.67550781 6.47453125 -2.67550781 6.47453125 -3.4921875 7.46875 C-4.23855469 8.22671875 -4.23855469 8.22671875 -5 9 C-5.66 9 -6.32 9 -7 9 C-7 8.34 -7 7.68 -7 7 C-8.32 6.67 -9.64 6.34 -11 6 C-7.37 4.02 -3.74 2.04 0 0 Z " fill="#48B3BC" transform="translate(321,165)"/>
<path d="M0 0 C2.97 0 5.94 0 9 0 C9 0.99 9 1.98 9 3 C7.741875 3.28875 6.48375 3.5775 5.1875 3.875 C2.1460601 4.57303539 0.69330122 5.20446585 -2 7 C-1.34 4.69 -0.68 2.38 0 0 Z " fill="#1D506F" transform="translate(215,161)"/>
<path d="M0 0 C0 0.66 0 1.32 0 2 C1.32 2.33 2.64 2.66 4 3 C3.67 4.65 3.34 6.3 3 8 C1.66144944 7.21718695 0.32926356 6.42348123 -1 5.625 C-1.7425 5.18414062 -2.485 4.74328125 -3.25 4.2890625 C-3.8275 3.86367187 -4.405 3.43828125 -5 3 C-5 2.34 -5 1.68 -5 1 C-3 0 -3 0 0 0 Z " fill="#1C7C7E" transform="translate(263,240)"/>
<path d="M0 0 C0 1.32 0 2.64 0 4 C2.97 4 5.94 4 9 4 C5.32326162 5.83836919 1.95007553 6.93651813 -2 8 C-2.144375 7.401875 -2.28875 6.80375 -2.4375 6.1875 C-2.8872439 4.43849596 -3.42892341 2.71322977 -4 1 C-2 0 -2 0 0 0 Z " fill="#308689" transform="translate(260,172)"/>
<path d="M0 0 C0.33 0 0.66 0 1 0 C1.05410687 1.77049689 1.09284119 3.54146849 1.125 5.3125 C1.14820313 6.29863281 1.17140625 7.28476563 1.1953125 8.30078125 C1 11 1 11 -1 14 C-1.33 12.02 -1.66 10.04 -2 8 C-2.99 8 -3.98 8 -5 8 C-5.33 8.99 -5.66 9.98 -6 11 C-6 9.68 -6 8.36 -6 7 C-4.02 6.67 -2.04 6.34 0 6 C0 4.02 0 2.04 0 0 Z " fill="#399B9C" transform="translate(294,200)"/>
<path d="M0 0 C4.875 1.75 4.875 1.75 6 4 C4.68 4 3.36 4 2 4 C2.33 5.98 2.66 7.96 3 10 C-0.465 8.02 -0.465 8.02 -4 6 C-3.01 5.67 -2.02 5.34 -1 5 C-0.67 3.35 -0.34 1.7 0 0 Z " fill="#349799" transform="translate(281,184)"/>
<path d="M0 0 C0.66 0 1.32 0 2 0 C2 0.99 2 1.98 2 3 C2.66 3 3.32 3 4 3 C3.33501617 7.38889325 1.81242323 10.9811485 0 15 C-1.2077558 11.37673261 -0.54311128 10.35853631 1 7 C0.67 6.67 0.34 6.34 0 6 C-0.04080783 4.00041636 -0.04254356 1.99954746 0 0 Z " fill="#1C5D80" transform="translate(262,267)"/>
<path d="M0 0 C0.99 0 1.98 0 3 0 C5 2 5 2 5 5 C4 6 4 6 0.5625 6.25 C-0.613125 6.1675 -1.78875 6.085 -3 6 C-3.66 5.01 -4.32 4.02 -5 3 C-4.34 2.67 -3.68 2.34 -3 2 C-2.67 2.66 -2.34 3.32 -2 4 C0.52733235 4.65555119 0.52733235 4.65555119 3 5 C3 4.34 3 3.68 3 3 C1.68 3 0.36 3 -1 3 C-0.67 2.01 -0.34 1.02 0 0 Z " fill="#134369" transform="translate(250,290)"/>
<path d="M0 0 C0.33 1.32 0.66 2.64 1 4 C-1.97180943 5.89865603 -4.51460083 7.35455571 -8 8 C-6.87224426 4.61673278 -5.64296752 3.33203016 -3 1 C-2.01 0.67 -1.02 0.34 0 0 Z " fill="#157989" transform="translate(273,276)"/>
<path d="M0 0 C3.32993034 3.82941989 5.05324525 8.37522222 7 13 C6.01 13.33 5.02 13.66 4 14 C3.32471777 12.42032193 2.66010306 10.83608097 2 9.25 C1.62875 8.36828125 1.2575 7.4865625 0.875 6.578125 C0 4 0 4 0 0 Z " fill="#1E516D" transform="translate(248,245)"/>
<path d="M0 0 C2.97 0.495 2.97 0.495 6 1 C5.67 3.31 5.34 5.62 5 8 C4.01 8.33 3.02 8.66 2 9 C1.20046862 5.71303767 0.90341064 4.28976808 2 1 C1.34 0.67 0.68 0.34 0 0 Z " fill="#35AAB2" transform="translate(289,198)"/>
<path d="M0 0 C0.90105469 0.01804688 1.80210937 0.03609375 2.73046875 0.0546875 C3.41753906 0.07789063 4.10460937 0.10109375 4.8125 0.125 C4.4825 0.785 4.1525 1.445 3.8125 2.125 C1.8325 2.125 -0.1475 2.125 -2.1875 2.125 C-1.5275 2.785 -0.8675 3.445 -0.1875 4.125 C-3.0625 4.25 -3.0625 4.25 -6.1875 4.125 C-6.8475 3.465 -7.5075 2.805 -8.1875 2.125 C-4.87379 -0.08414 -3.8428979 -0.09981553 0 0 Z " fill="#344572" transform="translate(175.1875,159.875)"/>
<path d="M0 0 C0.66 0.33 1.32 0.66 2 1 C2.125 6.75 2.125 6.75 1 9 C0.01 9 -0.98 9 -2 9 C-1.125 1.125 -1.125 1.125 0 0 Z " fill="#085A74" transform="translate(266,261)"/>
<path d="M0 0 C1.875 0.875 1.875 0.875 3.875 2.875 C2.225 2.875 0.575 2.875 -1.125 2.875 C-1.125 3.535 -1.125 4.195 -1.125 4.875 C-2.775 4.545 -4.425 4.215 -6.125 3.875 C-2.70224958 -0.15895586 -2.70224958 -0.15895586 0 0 Z " fill="#26A2A2" transform="translate(286.125,217.125)"/>
<path d="M0 0 C0.33 0.66 0.66 1.32 1 2 C1.66 2 2.32 2 3 2 C2.67 3.32 2.34 4.64 2 6 C0.35 5.67 -1.3 5.34 -3 5 C-3.33 3.68 -3.66 2.36 -4 1 C-2.68 0.67 -1.36 0.34 0 0 Z " fill="#259498" transform="translate(273,191)"/>
<path d="M0 0 C1.9375 0.75 1.9375 0.75 4 2 C4.875 4 4.875 4 5 6 C4.34 6.66 3.68 7.32 3 8 C2.731875 7.360625 2.46375 6.72125 2.1875 6.0625 C1.11332248 3.66868314 1.11332248 3.66868314 -2 3 C-1.34 2.01 -0.68 1.02 0 0 Z " fill="#135080" transform="translate(210,173)"/>
<path d="M0 0 C1.9451 2.91765 2.45276317 4.62537285 3 8 C2.01 8 1.02 8 0 8 C-0.33 7.34 -0.66 6.68 -1 6 C-1.66 5.67 -2.32 5.34 -3 5 C-2.625 3.0625 -2.625 3.0625 -2 1 C-1.34 0.67 -0.68 0.34 0 0 Z " fill="#14547A" transform="translate(244,240)"/>
<path d="M0 0 C-0.3125 2.375 -0.3125 2.375 -1 5 C-4 7 -4 7 -7 7 C-5.84933177 3.5479953 -4.01648928 0 0 0 Z " fill="#46C1CD" transform="translate(324,166)"/>
<path d="M0 0 C0.66 0 1.32 0 2 0 C4.1875 2.3125 4.1875 2.3125 6 5 C5.67 5.99 5.34 6.98 5 8 C4.4121875 7.2575 4.4121875 7.2575 3.8125 6.5 C1.44908285 4.54406857 -0.01435003 4.75792027 -3 5 C-1.625 2.5 -1.625 2.5 0 0 Z " fill="#196B80" transform="translate(264,257)"/>
<path d="M0 0 C0.33 0 0.66 0 1 0 C1.13277344 0.67546875 1.26554688 1.3509375 1.40234375 2.046875 C1.57894531 2.93890625 1.75554687 3.8309375 1.9375 4.75 C2.11152344 5.63171875 2.28554687 6.5134375 2.46484375 7.421875 C2.9468129 9.9581007 2.9468129 9.9581007 3.69140625 12.203125 C3.79324219 12.79609375 3.89507812 13.3890625 4 14 C3.34 14.66 2.68 15.32 2 16 C0.24836544 12.22777911 -0.22490027 9.333361 -0.125 5.1875 C-0.10695312 4.21167969 -0.08890625 3.23585937 -0.0703125 2.23046875 C-0.04710937 1.49441406 -0.02390625 0.75835937 0 0 Z " fill="#226A69" transform="translate(251,205)"/>
<path d="M0 0 C1.65 1.65 3.3 3.3 5 5 C3.68 6.32 2.36 7.64 1 9 C-1.125 3.375 -1.125 3.375 0 0 Z " fill="#49898C" transform="translate(274,201)"/>
<path d="M0 0 C0.66 0 1.32 0 2 0 C2 1.65 2 3.3 2 5 C-0.31 5.66 -2.62 6.32 -5 7 C-4.67 6.34 -4.34 5.68 -4 5 C-3.34 5 -2.68 5 -2 5 C-1.7834375 4.0409375 -1.7834375 4.0409375 -1.5625 3.0625 C-1 1 -1 1 0 0 Z " fill="#49B6C2" transform="translate(320,155)"/>
<path d="M0 0 C2.61984486 1.30992243 3.03394425 2.25045672 4 5 C3.75 8.1875 3.75 8.1875 3 11 C2.01 11.495 2.01 11.495 1 12 C0.67 8.04 0.34 4.08 0 0 Z " fill="#068281" transform="translate(273,260)"/>
<path d="M0 0 C0.99 1.32 1.98 2.64 3 4 C1.625 5.5 1.625 5.5 0 7 C-0.66 7 -1.32 7 -2 7 C-2.66 5.02 -3.32 3.04 -4 1 C-2.68 0.67 -1.36 0.34 0 0 Z " fill="#14406D" transform="translate(229,251)"/>
<path d="M0 0 C2.73324922 5.2704426 4.78968184 10.09404994 3 16 C2.34 15.67 1.68 15.34 1 15 C0.68758629 12.45058627 0.48696579 9.99638487 0.375 7.4375 C0.33632812 6.72658203 0.29765625 6.01566406 0.2578125 5.28320312 C0.16328217 3.52257575 0.08054183 1.76132272 0 0 Z " fill="#26636B" transform="translate(237,201)"/>
<path d="M0 0 C2.31 0.33 4.62 0.66 7 1 C7 1.99 7 2.98 7 4 C4.69 4.33 2.38 4.66 0 5 C0 3.35 0 1.7 0 0 Z " fill="#219C9A" transform="translate(260,171)"/>
<path d="M0 0 C1.125 1.6875 1.125 1.6875 2 4 C1.125 6.75 1.125 6.75 0 9 C-0.66 9 -1.32 9 -2 9 C-2.33 6.69 -2.66 4.38 -3 2 C-2.34 2.66 -1.68 3.32 -1 4 C-0.67 2.68 -0.34 1.36 0 0 Z " fill="#145F6D" transform="translate(259,209)"/>
<path d="M0 0 C1.65 0.33 3.3 0.66 5 1 C5 2.32 5 3.64 5 5 C4.01 5.495 4.01 5.495 3 6 C3 4.68 3 3.36 3 2 C1.02 2.66 -0.96 3.32 -3 4 C-2.01 2.68 -1.02 1.36 0 0 Z " fill="#51B2B9" transform="translate(325,161)"/>
<path d="M0 0 C0.99 0 1.98 0 3 0 C3.33 0.66 3.66 1.32 4 2 C6.32156597 2.40729228 8.6568787 2.74438677 11 3 C11 3.33 11 3.66 11 4 C9.56344146 4.08131463 8.1255517 4.13933559 6.6875 4.1875 C5.48673828 4.23970703 5.48673828 4.23970703 4.26171875 4.29296875 C1.52148416 3.93801608 0.70828921 3.10633718 -1 1 C-0.67 0.67 -0.34 0.34 0 0 Z " fill="#2B817F" transform="translate(268,221)"/>
<path d="M0 0 C1.875 0.5 1.875 0.5 4 2 C4.98494554 4.65177645 5.45912382 7.20547307 6 10 C5.34 10 4.68 10 4 10 C3.32845067 8.71086513 2.66291141 7.41859796 2 6.125 C1.62875 5.40570313 1.2575 4.68640625 0.875 3.9453125 C0 2 0 2 0 0 Z " fill="#173A6F" transform="translate(193,186)"/>
<path d="M0 0 C0 0.99 0 1.98 0 3 C0.66 3.33 1.32 3.66 2 4 C1.34 4.66 0.68 5.32 0 6 C-0.99 5.67 -1.98 5.34 -3 5 C-3.6875 2.9375 -3.6875 2.9375 -4 1 C-2 0 -2 0 0 0 Z " fill="#115271" transform="translate(262,270)"/>
<path d="M0 0 C0.66 0 1.32 0 2 0 C2.33 1.32 2.66 2.64 3 4 C3.99 4 4.98 4 6 4 C5.34 5.65 4.68 7.3 4 9 C2.00902154 6.01353231 1.05875074 3.40312738 0 0 Z " fill="#399297" transform="translate(295,191)"/>
<path d="M0 0 C-0.99 1.485 -0.99 1.485 -2 3 C-3.65 2.67 -5.3 2.34 -7 2 C-7 1.34 -7 0.68 -7 0 C-3.86650268 -1.04449911 -3.01031744 -0.93423645 0 0 Z " fill="#17A59E" transform="translate(271,191)"/>
<path d="M0 0 C0.598125 0.33 1.19625 0.66 1.8125 1 C4.05386471 2.20787988 4.05386471 2.20787988 7 2 C7 2.99 7 3.98 7 5 C6.34 5.66 5.68 6.32 5 7 C3.35 4.69 1.7 2.38 0 0 Z " fill="#237375" transform="translate(260,244)"/>
<path d="M0 0 C1.98 0.495 1.98 0.495 4 1 C4 2.65 4 4.3 4 6 C2.35 5.01 0.7 4.02 -1 3 C-0.67 2.01 -0.34 1.02 0 0 Z " fill="#489194" transform="translate(285,178)"/>
<path d="M0 0 C3.37503669 1.1858237 5.64722731 2.27573689 8 5 C7.67 5.66 7.34 6.32 7 7 C5.82780457 6.21654285 4.66236332 5.42297164 3.5 4.625 C2.8503125 4.18414062 2.200625 3.74328125 1.53125 3.2890625 C1.0259375 2.86367187 0.520625 2.43828125 0 2 C0 1.34 0 0.68 0 0 Z " fill="#1A2B5C" transform="translate(175,163)"/>
<path d="M0 0 C1.65 0 3.3 0 5 0 C5 0.66 5 1.32 5 2 C3.02 2 1.04 2 -1 2 C-0.67 1.34 -0.34 0.68 0 0 Z " fill="#2E94A6" transform="translate(303,164)"/>
<path d="M0 0 C0.66 0 1.32 0 2 0 C1.67 0.66 1.34 1.32 1 2 C0.67 1.34 0.34 0.68 0 0 Z " fill="#235555" transform="translate(261,190)"/>
<path d="" fill="#4A8080" transform="translate(0,0)"/>
<path d="" fill="#556A6A" transform="translate(0,0)"/>
<path d="" fill="#008080" transform="translate(0,0)"/>
<path d="M0 0 C2 1 2 1 2 1 Z " fill="#000000" transform="translate(276,217)"/>
<path d="M0 0 C2 1 2 1 2 1 Z " fill="#4A6A6A" transform="translate(270,216)"/>
<path d="M0 0 C2 1 2 1 2 1 Z " fill="#2A2A2A" transform="translate(257,192)"/>
<path d="" fill="#336666" transform="translate(0,0)"/>
<path d="" fill="#808080" transform="translate(0,0)"/>
<path d="" fill="#000000" transform="translate(0,0)"/>
<path d="" fill="#336666" transform="translate(0,0)"/>
<path d="" fill="#555555" transform="translate(0,0)"/>
<path d="" fill="#000000" transform="translate(0,0)"/>
<path d="" fill="#000000" transform="translate(0,0)"/>
<path d="" fill="#000000" transform="translate(0,0)"/>
<path d="" fill="#404080" transform="translate(0,0)"/>
<path d="" fill="#000000" transform="translate(0,0)"/>
<path d="" fill="#555555" transform="translate(0,0)"/>
<path d="" fill="#000000" transform="translate(0,0)"/>
<path d="" fill="#000000" transform="translate(0,0)"/>
<path d="" fill="#000000" transform="translate(0,0)"/>
<path d="" fill="#808080" transform="translate(0,0)"/>
<path d="" fill="#000000" transform="translate(0,0)"/>
<path d="" fill="#496D6D" transform="translate(0,0)"/>
<path d="" fill="#008080" transform="translate(0,0)"/>
</svg>
